<?xml version="1.0" standalone="no"?>
<!DOCTYPE svg PUBLIC "-//W3C//DTD SVG 1.1//EN" "http://www.w3.org/Graphics/SVG/1.1/DTD/svg11.dtd" >
<svg xmlns="http://www.w3.org/2000/svg" xmlns:xlink="http://www.w3.org/1999/xlink" version="1.1">
<metadata>
Created by FontForge 20161013 at Wed May  1 21:48:43 2013
 By ,,,
Copyright (c) 2013 by Thinkdust. All rights reserved.
</metadata>
<defs>
<font id="Nanami" horiz-adv-x="600" >
  <font-face 
    font-family="Nanami"
    font-weight="400"
    font-stretch="normal"
    units-per-em="1000"
    panose-1="2 0 0 0 0 0 0 0 0 0"
    ascent="750"
    descent="-250"
    x-height="500"
    cap-height="750"
    bbox="-64 -225 1247 977"
    underline-thickness="50"
    underline-position="-200"
    unicode-range="U+0020-FB02"
  />
<missing-glyph horiz-adv-x="290" 
 />
    <glyph glyph-name=".notdef" horiz-adv-x="290" 
 />
    <glyph glyph-name=".null" horiz-adv-x="0" 
 />
    <glyph glyph-name="nonmarkingreturn" horiz-adv-x="333" 
 />
    <glyph glyph-name="space" unicode=" " horiz-adv-x="290" 
 />
    <glyph glyph-name="exclam" unicode="!" horiz-adv-x="226" 
d="M182 750v-581h-136v581h136zM182 64q0 -27 -20 -47.5t-49 -20.5q-27 0 -47.5 20.5t-20.5 47.5q0 29 20.5 49t47.5 20q29 0 49 -20t20 -49z" />
    <glyph glyph-name="quotedbl" unicode="&#x22;" horiz-adv-x="412" 
d="M241 461v289h114v-289h-114zM57 461v289h114v-289h-114z" />
    <glyph glyph-name="numbersign" unicode="#" horiz-adv-x="704" 
d="M200 299l16 114h-134v96h148l29 208h96l-29 -208h96l29 208h96l-29 -208h135v-96h-149l-16 -114h135v-96h-149l-29 -203h-96q0 6 2.5 21.5t10 65.5t16.5 116h-96l-29 -203h-96q0 6 2.5 21.5t10 65.5t16.5 116h-134v96h148zM313 413l-16 -114h95l16 114h-95z" />
    <glyph glyph-name="dollar" unicode="$" horiz-adv-x="535" 
d="M53 150l132 22q23 -38 80 -38q32 0 53 22.5t21 53.5q0 22 -6 38t-12 25.5t-23.5 18.5t-27 12.5t-35.5 12.5q-82 27 -131.5 82.5t-49.5 133.5q0 88 43.5 145t121.5 72v94h114v-97q99 -30 126 -115l-129 -62q-21 42 -66 42q-27 0 -47 -22.5t-20 -50.5q0 -9 2 -17.5t7 -16
t9.5 -13t13.5 -11.5t13.5 -9.5t16 -8.5t15 -7t16 -7t13.5 -5q33 -13 54 -25q67 -36 96 -84t29 -125q0 -73 -42 -130.5t-107 -78.5v-93h-114v89q-69 5 -113 45t-53 108z" />
    <glyph glyph-name="percent" unicode="%" horiz-adv-x="915" 
d="M298 -12l-58 37l372 729l61 -30q-224 -442 -352 -690q-23 -45 -23 -46zM600 180q0 -34 23.5 -57.5t57.5 -23.5t57.5 23.5t23.5 57.5t-23.5 57.5t-57.5 23.5t-57.5 -23.5t-23.5 -57.5zM501 180q0 75 52.5 127.5t127.5 52.5t127.5 -52.5t52.5 -127.5t-52.5 -127.5
t-127.5 -52.5t-127.5 52.5t-52.5 127.5zM153 570q0 -34 23.5 -57.5t57.5 -23.5t57.5 23.5t23.5 57.5t-23.5 57.5t-57.5 23.5t-57.5 -23.5t-23.5 -57.5zM54 570q0 75 52.5 127.5t127.5 52.5t127.5 -52.5t52.5 -127.5t-52.5 -127.5t-127.5 -52.5t-127.5 52.5t-52.5 127.5z" />
    <glyph glyph-name="ampersand" unicode="&#x26;" horiz-adv-x="723" 
d="M631 442l-95 -184q-3 -4 -3 -9t3 -8l155 -143l-87 -98q-26 23 -75.5 68.5t-61.5 56.5l-9 -19q-29 -53 -81 -83.5t-111 -30.5q-96 0 -163.5 65.5t-67.5 159.5q0 131 127 211q-75 57 -75 152q0 72 55 125t130 53q73 0 125 -52.5t52 -125.5q0 -99 -98 -163l80 -78l83 161z
M165 221q0 -42 28.5 -70.5t70.5 -28.5q57 0 100 89l3 6l-125 117q-32 -18 -54.5 -48t-22.5 -65zM217 575q0 -17 12.5 -35.5t25 -29.5t12.5 -9q19 4 36 29t17 45q0 21 -15 36t-36 15q-22 0 -37 -15t-15 -36z" />
    <glyph glyph-name="quotesingle" unicode="'" horiz-adv-x="226" 
d="M56 461v289h114v-289h-114z" />
    <glyph glyph-name="parenleft" unicode="(" horiz-adv-x="343" 
d="M55 169v367q0 160 121 256l92 -100q-44 -44 -57 -82.5t-13 -108.5v-297q0 -70 13 -108.5t57 -82.5l-92 -100q-121 96 -121 256z" />
    <glyph glyph-name="parenright" unicode=")" horiz-adv-x="343" 
d="M288 536v-367q0 -160 -121 -256l-92 100q44 44 57 82.5t13 108.5v297q0 70 -13 108.5t-57 82.5l92 100q121 -96 121 -256z" />
    <glyph glyph-name="asterisk" unicode="*" horiz-adv-x="441" 
d="M40 477v109l109 -25l-94 60l76 76l60 -95l-25 110h109l-25 -110l60 95l76 -76l-95 -60l110 25v-109l-110 25l95 -60l-76 -76l-60 94l25 -109h-109l25 110l-60 -95l-76 76l95 60z" />
    <glyph glyph-name="plus" unicode="+" 
d="M243 312v189h114v-189h192v-114h-192v-190h-114v190h-193v114h193z" />
    <glyph glyph-name="comma" unicode="," horiz-adv-x="225" 
d="M46 97l111 23l17 -187l-79 -10z" />
    <glyph glyph-name="hyphen" unicode="-" horiz-adv-x="429" 
d="M56 344h317v-114h-317v114z" />
    <glyph glyph-name="period" unicode="." horiz-adv-x="227" 
d="M55 52q0 24 17.5 42.5t43.5 18.5q23 0 39.5 -18.5t16.5 -42.5q0 -23 -16.5 -39.5t-39.5 -16.5q-27 0 -44 16t-17 40z" />
    <glyph glyph-name="slash" unicode="/" horiz-adv-x="359" 
d="M102 -7l-61 8l216 756l60 -14z" />
    <glyph glyph-name="zero" unicode="0" 
d="M555 503v-256q0 -103 -75 -179t-180 -76t-180 76t-75 179v256q0 103 75 179t180 76t180 -76t75 -179zM187 501v-252q0 -45 34 -79t79 -34t78.5 34t33.5 79v252q0 45 -33.5 79t-78.5 34t-79 -34t-34 -79z" />
    <glyph glyph-name="one" unicode="1" 
d="M151 616v135h262v-751h-143v610q0 6 -6 6h-113z" />
    <glyph glyph-name="two" unicode="2" 
d="M86 0l-43 100l265 255q102 92 102 171q0 37 -26.5 66.5t-70.5 29.5q-40 0 -76 -30.5t-56 -73.5l-99 89q87 151 234 151q110 0 174 -66.5t64 -168.5q0 -65 -37.5 -127.5t-119.5 -138.5l-123 -113q-2 -2 -2 -3q0 -2 3 -2h278v-139h-467z" />
    <glyph glyph-name="three" unicode="3" 
d="M173 563l-56 115q81 80 184 80q92 0 147 -53.5t55 -132.5q0 -87 -75 -146q-3 -3 -3 -5q0 -1 5 -4q55 -27 85 -77t30 -113q0 -98 -67 -165.5t-171 -67.5q-113 0 -200 84l68 123q65 -67 128 -67q43 0 72 26.5t29 69.5q0 47 -35 76.5t-88 35.5l-52 2v123l34 2q41 3 70 28.5
t29 61.5q0 24 -19 43.5t-51 19.5q-58 0 -119 -59z" />
    <glyph glyph-name="four" unicode="4" 
d="M46 121v141q82 134 150 240q32 51 71.5 113.5t61 97t22.5 36.5h146v-488h70v-145h-70v-116h-143v115q0 6 -6 6h-302zM350 512l-146 -251q-1 -1 -1 -3q0 -4 3 -4h142q6 0 6 6q0 254 -1 254t-3 -2z" />
    <glyph glyph-name="five" unicode="5" 
d="M141 750h354v-141h-245q-6 0 -7 -6l-23 -113q0 -2 1 -3h4q44 12 87 12q110 0 176 -70.5t66 -175.5q0 -108 -75 -184.5t-185 -76.5q-63 0 -108.5 18t-97.5 60l50 136q77 -71 153 -71q55 0 88.5 34t33.5 81q0 46 -33.5 80.5t-83.5 34.5q-51 0 -97 -26q-23 -13 -38 -24
l-83 86q0 5 2 19z" />
    <glyph glyph-name="six" unicode="6" 
d="M34 258q0 78 36 134l233 371l121 -77l-109 -168q-1 -1 -1 -3t2 -2q108 -10 179 -80t71 -175q0 -110 -78 -188t-188 -78t-188 78t-78 188zM177 258q0 -54 34.5 -88.5t88.5 -34.5q52 0 87.5 35t35.5 88q0 52 -35.5 87.5t-87.5 35.5q-53 0 -88 -35.5t-35 -87.5z" />
    <glyph glyph-name="seven" unicode="7" 
d="M83 610v140h424l30 -95l-294 -667l-131 57l247 561q0 4 -4 4h-272z" />
    <glyph glyph-name="eight" unicode="8" 
d="M89 546q0 87 62 149t149 62t149 -62t62 -149q0 -62 -59 -128q95 -79 95 -180q0 -102 -72.5 -174.5t-174.5 -72.5t-174.5 72.5t-72.5 174.5q0 103 94 180q-58 65 -58 128zM195 238q0 -44 30.5 -74.5t74.5 -30.5t74 30.5t30 74.5t-30 74t-74 30t-74.5 -30t-30.5 -74z
M230 546q0 -29 20.5 -49.5t49.5 -20.5t49 20.5t20 49.5t-20 49t-49 20t-49.5 -20t-20.5 -49z" />
    <glyph glyph-name="nine" unicode="9" 
d="M566 489q0 -78 -36 -134l-233 -367l-121 77l109 164q1 1 1 3t-2 2q-108 10 -179 80t-71 175q0 110 78 188t188 78t188 -78t78 -188zM423 489q0 54 -34.5 88.5t-88.5 34.5q-52 0 -87.5 -35t-35.5 -88q0 -52 35.5 -87.5t87.5 -35.5q53 0 88 35.5t35 87.5z" />
    <glyph glyph-name="colon" unicode=":" horiz-adv-x="229" 
d="M56 52q0 24 17.5 42.5t43.5 18.5q23 0 39.5 -18.5t16.5 -42.5q0 -23 -16.5 -39.5t-39.5 -16.5q-27 0 -44 16t-17 40zM56 403q0 27 17 44t44 17q24 0 40 -17t16 -44q0 -23 -16.5 -39.5t-39.5 -16.5q-27 0 -44 16t-17 40z" />
    <glyph glyph-name="semicolon" unicode=";" horiz-adv-x="226" 
d="M54 405q0 26 16 43t40 17q26 0 43 -17t17 -43q0 -24 -17 -40t-43 -16q-23 0 -39.5 16.5t-16.5 39.5zM46 97l111 23l17 -187l-79 -10z" />
    <glyph glyph-name="less" unicode="&#x3c;" horiz-adv-x="670" 
d="M57 210l1 85l528 219v-89l-410 -175q0 -2 409 -170v-89z" />
    <glyph glyph-name="equal" unicode="=" horiz-adv-x="571" 
d="M57 230h457v-114h-457v114zM57 398h457v-114h-457v114z" />
    <glyph glyph-name="greater" unicode="&#x3e;" horiz-adv-x="669" 
d="M585 295l1 -85l-528 -219v89q409 168 409 170l-410 175v89z" />
    <glyph glyph-name="question" unicode="?" horiz-adv-x="450" 
d="M269 64q0 -27 -20 -47.5t-49 -20.5q-27 0 -47.5 20.5t-20.5 47.5q0 29 20.5 49t47.5 20q29 0 49 -20t20 -49zM266 173l-140 -1q-17 76 -17 125q0 41 16.5 76.5t39.5 60t46 46t39.5 44.5t16.5 46q0 47 -43 47q-20 0 -43 -13.5t-34.5 -25t-31.5 -32.5l-88 90q24 32 59 61
q73 61 143 61q87 0 135.5 -46t48.5 -136q0 -54 -17 -92.5t-41 -60.5t-48.5 -41.5t-41.5 -46.5t-17 -63t18 -99z" />
    <glyph glyph-name="at" unicode="@" horiz-adv-x="910" 
d="M520 331l18 71q3 15 3 29q0 36 -21.5 55.5t-52.5 19.5q-54 0 -92.5 -56t-38.5 -133q0 -92 73 -92q37 0 68 29.5t43 76.5zM520 244q-50 -73 -130 -73q-66 0 -101 38.5t-35 107.5q0 104 59.5 173t143.5 69q80 0 107 -63l24 49h68l-63 -252q-5 -19 -5 -25q0 -15 10.5 -24.5
t28.5 -9.5q51 0 92 49q63 63 63 170q0 106 -78.5 170t-212.5 64q-149 0 -256 -99t-107 -245q0 -121 94.5 -201t234.5 -80q168 0 267 71l29 -39q-131 -102 -291 -102q-79 0 -151.5 23.5t-130 67.5t-91.5 113.5t-34 154.5q0 174 129 290.5t312 116.5q91 0 171 -33t134 -104.5
t54 -167.5q0 -140 -107 -233q-66 -49 -135 -49q-89 0 -93 73z" />
    <glyph glyph-name="A" unicode="A" horiz-adv-x="750" 
d="M730 0h-153l-59 135q-2 5 -8 5h-271q-6 0 -8 -5l-56 -135h-154l299 750h109zM377 493l-2 2q-2 0 -2 -2q-1 -1 -1 -2l-84 -211q-1 -1 -1 -4t4 -3h167q4 0 4 4q0 2 -1 3l-83 211q-1 1 -1 2z" />
    <glyph glyph-name="B" unicode="B" horiz-adv-x="571" 
d="M289 0h-232v750h215q7 0 9 -1q83 -6 137.5 -63.5t54.5 -138.5q0 -75 -43 -132q87 -71 87 -182q0 -96 -66.5 -163.5t-161.5 -69.5zM206 143h78q38 0 64 28.5t26 67.5t-26 67t-64 28h-78q-6 0 -6 -6v-179q0 -6 6 -6zM336 534q0 30 -21 51.5t-53 21.5h-56q-6 0 -6 -6v-138
q0 -6 6 -6h62q29 2 48.5 24.5t19.5 52.5z" />
    <glyph glyph-name="C" unicode="C" horiz-adv-x="713" 
d="M437 615q-102 -4 -171 -72.5t-69 -167.5q0 -97 72 -165.5t168 -74.5q85 0 151 53l88 -114q-13 -13 -35.5 -28t-80.5 -34.5t-123 -19.5q-159 0 -271 112t-112 271t112 271t271 112q135 0 239 -82l-88 -114q-66 53 -151 53z" />
    <glyph glyph-name="D" unicode="D" horiz-adv-x="734" 
d="M206 143h97q102 0 168 65t66 167q0 103 -63 167.5t-165 64.5h-103q-6 0 -6 -6v-452q0 -6 6 -6zM57 0v750h246q156 0 266.5 -110.5t110.5 -264.5t-110.5 -264.5t-266.5 -110.5h-246z" />
    <glyph glyph-name="E" unicode="E" horiz-adv-x="527" 
d="M200 299v-150q0 -6 6 -6h263v-143h-412v750h412v-143h-263q-6 0 -6 -6v-147q0 -6 6 -6h263v-143h-263q-6 0 -6 -6z" />
    <glyph glyph-name="F" unicode="F" horiz-adv-x="520" 
d="M57 0v750h413v-143h-264q-6 0 -6 -6v-147q0 -6 6 -6h264v-143h-264q-6 0 -6 -6v-299h-143z" />
    <glyph glyph-name="G" unicode="G" horiz-adv-x="819" 
d="M422 408h327v-283q-111 -133 -311 -133q-159 0 -271 112t-112 271t112 271t271 112q66 0 130 -22t91 -39.5t43 -31.5l-88 -114q-32 26 -82.5 45t-93.5 19q-99 0 -169.5 -70.5t-70.5 -169.5q0 -100 72.5 -170.5t178.5 -70.5q101 0 155 47v86q0 3 -4 3h-178v138z" />
    <glyph glyph-name="H" unicode="H" horiz-adv-x="656" 
d="M456 454v296h143v-750h-143v299q0 6 -6 6h-244q-6 0 -6 -6v-299h-143v750h143v-296q0 -6 6 -6h244q6 0 6 6z" />
    <glyph glyph-name="I" unicode="I" horiz-adv-x="257" 
d="M57 750h143v-750h-143v750z" />
    <glyph glyph-name="J" unicode="J" horiz-adv-x="471" 
d="M36 95l125 74q11 -35 53 -35q26 0 44.5 19t18.5 46v551h143v-551q0 -87 -60 -147t-146 -60q-57 0 -104.5 27.5t-73.5 75.5z" />
    <glyph glyph-name="K" unicode="K" horiz-adv-x="583" 
d="M57 0v750h143q0 -325 1 -325t3 2l201 323h163l-226 -369q-2 -4 -2 -6q0 -4 2 -6l230 -369h-168q-202 326 -204 326v-326h-143z" />
    <glyph glyph-name="L" unicode="L" horiz-adv-x="500" 
d="M212 143h239v-143h-394v751h143v-596q0 -12 12 -12z" />
    <glyph glyph-name="M" unicode="M" horiz-adv-x="874" 
d="M436 226l191 524h191v-750h-141v493l-28 -67q-45 -118 -159 -426h-109l-177 497v-497h-147v750h188z" />
    <glyph glyph-name="N" unicode="N" horiz-adv-x="711" 
d="M57 749l134 1l320 -475v474h143v-749h-133l-321 475v-475h-143v749z" />
    <glyph glyph-name="O" unicode="O" horiz-adv-x="876" 
d="M55 375q0 159 112 271t271 112t271 -112t112 -271t-112 -271t-271 -112t-271 112t-112 271zM198 375q0 -99 70.5 -169.5t169.5 -70.5t169.5 70.5t70.5 169.5t-70.5 169.5t-169.5 70.5t-169.5 -70.5t-70.5 -169.5z" />
    <glyph glyph-name="P" unicode="P" horiz-adv-x="556" 
d="M200 601v-157q0 -6 6 -6h82q39 0 57 27.5t18 59.5q0 30 -17.5 56t-57.5 26h-82q-6 0 -6 -6zM57 0l1 750h230q95 0 156.5 -64.5t61.5 -160.5q0 -97 -61.5 -163.5t-156.5 -66.5h-82q-6 0 -6 -6v-289h-143z" />
    <glyph glyph-name="Q" unicode="Q" horiz-adv-x="876" 
d="M55 375q0 159 112 271t271 112t271 -112t112 -271q0 -132 -81 -235l58 -55l-106 -95l-58 55q-89 -53 -196 -53q-159 0 -271 112t-112 271zM198 375q0 -99 70.5 -169.5t169.5 -70.5q48 0 93 19l-64 66l100 95l70 -73q41 59 41 133q0 99 -70.5 169.5t-169.5 70.5
t-169.5 -70.5t-70.5 -169.5z" />
    <glyph glyph-name="R" unicode="R" horiz-adv-x="595" 
d="M200 601v-173q0 -6 6 -6h86q38 0 61 27t23 66q0 38 -23 65t-61 27h-86q-6 0 -6 -6zM408 0l-155 288q-3 6 -9 6h-38q-6 0 -6 -6v-288h-143v750h235q102 0 164 -68t62 -167q0 -95 -67 -162q-12 -12 -51 -36q-3 0 0 -5l172 -312h-164z" />
    <glyph glyph-name="S" unicode="S" horiz-adv-x="539" 
d="M55 150l114 49q39 -65 98 -65q32 0 53 22.5t21 53.5q0 21 -7 37t-13 25t-26 19.5t-26.5 13.5t-32.5 13q-86 33 -133 83t-47 132q0 101 59.5 162t159.5 61q59 0 113.5 -33t72.5 -91l-129 -62q-19 42 -66 42q-27 0 -47 -22.5t-20 -50.5q0 -25 22 -47t56 -37q70 -29 100 -47
q57 -34 82 -80t25 -118q0 -91 -61.5 -154.5t-149.5 -63.5h-9q-75 0 -131 44t-78 114z" />
    <glyph glyph-name="T" unicode="T" horiz-adv-x="583" 
d="M362 0h-143v602q0 1 -1 2q-3 3 -4 3h-161v143h477v-143h-162l-6 -5v-602z" />
    <glyph glyph-name="U" unicode="U" horiz-adv-x="607" 
d="M56 213v536h143v-516q0 -42 34 -68.5t73 -26.5q40 0 71 26.5t31 64.5v520h143v-536q0 -93 -73.5 -155.5t-171.5 -62.5q-99 0 -174.5 62.5t-75.5 155.5z" />
    <glyph glyph-name="V" unicode="V" horiz-adv-x="690" 
d="M511 750h155l-267 -750h-109l-263 750h153l162 -494q0 -1 1 -2q0 -2 2 -2l2 2q0 1 1 2z" />
    <glyph glyph-name="W" unicode="W" horiz-adv-x="934" 
d="M690 0h-114q-25 96 -42 161t-29.5 114.5t-20 77.5t-12 45t-6 22t-1.5 4l-109 -424h-112l-202 750h149q54 -212 95 -374l13 -51q1 0 3 2l111 423h112q54 -212 95 -374l13 -51q1 0 3 2l108 423h149z" />
    <glyph glyph-name="X" unicode="X" horiz-adv-x="658" 
d="M417 369l230 -369h-170l-143 233q-2 3 -5 3t-5 -3l-145 -233h-167l229 369l2 6l-2 6l-228 370h168l144 -235q1 -3 4 -3t4 3l144 234h170l-230 -369q-2 -4 -2 -6q0 -4 2 -6z" />
    <glyph glyph-name="Y" unicode="Y" horiz-adv-x="594" 
d="M16 750h158l120 -300q2 -3 3 -3t3 3l121 299h156l-208 -479v-270h-143v270z" />
    <glyph glyph-name="Z" unicode="Z" horiz-adv-x="586" 
d="M352 590q3 6 3 9q0 8 -17 8h-282v143h472v-111l-74 -119q-74 -118 -149 -240t-75 -129q0 -8 17 -8h281v-143h-472v110q97 155 149 240z" />
    <glyph glyph-name="bracketleft" unicode="[" horiz-adv-x="355" 
d="M59 -147l-2 963h244v-120h-96q-5 0 -5 -6v-711q0 -6 5 -6h96v-120h-242z" />
    <glyph glyph-name="backslash" unicode="\" horiz-adv-x="360" 
d="M318 8l-59 -17l-218 752l59 18z" />
    <glyph glyph-name="bracketright" unicode="]" horiz-adv-x="355" 
d="M301 816l-2 -963h-242v120h96q5 0 5 6v711q0 6 -5 6h-96v120h244z" />
    <glyph glyph-name="asciicircum" unicode="^" horiz-adv-x="560" 
d="M280 606l-137 -253h-121l218 397h80l218 -397h-119z" />
    <glyph glyph-name="underscore" unicode="_" horiz-adv-x="670" 
d="M0 -64h670v-71h-670v71z" />
    <glyph glyph-name="grave" unicode="`" horiz-adv-x="339" 
d="M101 766l186 -79l-62 -97l-172 70z" />
    <glyph glyph-name="a" unicode="a" horiz-adv-x="587" 
d="M161 250q0 -52 35.5 -88t87.5 -36t87.5 36t35.5 88t-35.5 88t-87.5 36t-87.5 -36t-35.5 -88zM419 500h124v-500h-124v29q-59 -37 -135 -37q-106 0 -182 76t-76 182t76 182t182 76q73 0 135 -38v30z" />
    <glyph glyph-name="b" unicode="b" horiz-adv-x="602" 
d="M428 250q0 52 -35.5 88t-87.5 36t-87.5 -36t-35.5 -88t35.5 -88t87.5 -36t87.5 36t35.5 88zM174 0h-129v701h136v-225q58 32 124 32q106 0 182 -76t76 -182t-76 -182t-182 -76q-68 0 -131 33v-25z" />
    <glyph glyph-name="c" unicode="c" horiz-adv-x="550" 
d="M294 508q63 0 122 -32.5t90 -80.5l-101 -75q-1 1 -12 11t-14.5 12.5t-15 10t-19.5 10t-21 5.5t-27 3q-51 0 -86.5 -35.5t-35.5 -85.5q0 -51 35.5 -86.5t86.5 -35.5q61 0 108 65l119 -60q-34 -64 -95 -103t-134 -39q-108 0 -183.5 75.5t-75.5 183.5q0 107 75.5 182
t183.5 75z" />
    <glyph glyph-name="d" unicode="d" horiz-adv-x="606" 
d="M180 250q0 -52 35.5 -88t87.5 -36t87.5 36t35.5 88t-35.5 88t-87.5 36t-87.5 -36t-35.5 -88zM434 0v28q-65 -36 -131 -36q-106 0 -182 76t-76 182t76 182t182 76q66 0 124 -32v224h136v-700h-129z" />
    <glyph glyph-name="e" unicode="e" horiz-adv-x="533" 
d="M300 116q58 0 135 40l55 -97q-51 -36 -96.5 -51.5t-106.5 -15.5q-113 0 -186 73t-73 186q0 107 73 181.5t179 74.5q109 0 169 -67.5t60 -178.5q0 -27 -3 -57h-327q-3 0 -3 -5q11 -37 45 -60t79 -23zM275 388q-41 0 -72 -31q-29 -29 -29 -50q0 -3 4 -3h189q4 0 4 2
q0 33 -22 55q-27 27 -74 27z" />
    <glyph glyph-name="f" unicode="f" horiz-adv-x="425" 
d="M111 500v48q0 70 41 112t114 42h89v-118h-53q-55 0 -55 -57v-27h145v-122h-145v-378h-136v378h-81v122h81z" />
    <glyph glyph-name="g" unicode="g" horiz-adv-x="608" 
d="M180 250q0 -52 35.5 -88t87.5 -36t87.5 36t35.5 88t-35.5 88t-87.5 36t-87.5 -36t-35.5 -88zM107 -155l85 91q49 -39 98 -39q53 0 92.5 36t45.5 88q0 1 -1 2v1q-58 -32 -124 -32q-106 0 -182 76t-76 182t76 182t182 76q70 0 131 -34v26h129v-447q0 -115 -80.5 -196.5
t-196.5 -81.5q-102 0 -179 70z" />
    <glyph glyph-name="h" unicode="h" horiz-adv-x="535" 
d="M181 701v-211q44 18 86 18q106 0 164.5 -57.5t58.5 -163.5v-287h-136v285q0 36 -25.5 61.5t-61.5 25.5t-61.5 -25.5t-25.5 -61.5v-285h-135v701h136z" />
    <glyph glyph-name="i" unicode="i" horiz-adv-x="226" 
d="M45 0v501h136v-501h-136zM45 610q0 27 20 47.5t49 20.5q27 0 47.5 -20.5t20.5 -47.5q0 -29 -20.5 -49t-47.5 -20q-29 0 -49 20t-20 49z" />
    <glyph glyph-name="j" unicode="j" horiz-adv-x="226" 
d="M45 610q0 27 20 47.5t49 20.5q27 0 47.5 -20.5t20.5 -47.5q0 -29 -20.5 -49t-47.5 -20q-29 0 -49 20t-20 49zM0 -225v135h33q12 4 12 27v565h136v-605q0 -62 -34.5 -92t-81.5 -30h-65z" />
    <glyph glyph-name="k" unicode="k" horiz-adv-x="468" 
d="M181 751v-452q0 -3 1 -3t3 2l127 202h149l-152 -243q-1 -1 -1 -3l-1 -2l2 -6l155 -246h-153q-23 37 -46.5 75t-37.5 60.5t-22 34.5q-12 19 -22 36q-2 0 -2 -5v-201h-136v751h136z" />
    <glyph glyph-name="l" unicode="l" horiz-adv-x="226" 
d="M45 0v700h136v-700h-136z" />
    <glyph glyph-name="m" unicode="m" horiz-adv-x="844" 
d="M44 0v500h125v-18q40 26 98 26q94 0 155 -50q59 50 155 50q106 0 164.5 -57.5t58.5 -163.5v-287h-136v285q0 36 -25.5 61.5t-61.5 25.5t-61.5 -23t-25.5 -58v-291h-136v285q0 36 -25.5 61.5t-61.5 25.5q-35 0 -60 -23t-27 -58v-291h-136z" />
    <glyph glyph-name="n" unicode="n" horiz-adv-x="533" 
d="M44 0v500h124v-19q41 27 99 27q106 0 164.5 -57.5t58.5 -163.5v-287h-136v285q0 36 -25.5 61.5t-61.5 25.5q-35 0 -60 -23t-27 -58v-291h-136z" />
    <glyph glyph-name="o" unicode="o" horiz-adv-x="582" 
d="M172 251q0 -51 35.5 -86.5t86.5 -35.5q50 0 85.5 35.5t35.5 86.5q0 50 -35.5 85.5t-85.5 35.5q-51 0 -86.5 -35.5t-35.5 -85.5zM35 251q0 107 75.5 182t183.5 75q106 0 181.5 -75t75.5 -182q0 -108 -75 -183.5t-182 -75.5q-108 0 -183.5 75.5t-75.5 183.5z" />
    <glyph glyph-name="p" unicode="p" horiz-adv-x="601" 
d="M428 250q0 52 -35.5 88t-87.5 36t-87.5 -36t-35.5 -88t35.5 -88t87.5 -36t87.5 36t35.5 88zM45 -205v705h129v-27q63 35 131 35q106 0 182 -76t76 -182t-76 -182t-182 -76q-66 0 -124 32v-229h-136z" />
    <glyph glyph-name="q" unicode="q" horiz-adv-x="606" 
d="M180 250q0 -52 35.5 -88t87.5 -36t87.5 36t35.5 88t-35.5 88t-87.5 36t-87.5 -36t-35.5 -88zM434 500h129v-705h-136v229q-58 -32 -124 -32q-106 0 -182 76t-76 182t76 182t182 76q70 0 131 -34v26z" />
    <glyph glyph-name="r" unicode="r" horiz-adv-x="370" 
d="M44 0v500h127v-22q36 30 97 30h70v-137h-71q-35 0 -60 -22.5t-27 -57.5v-291h-136z" />
    <glyph glyph-name="s" unicode="s" horiz-adv-x="359" 
d="M29 100l94 57q26 -35 50 -35q10 0 19 9t9 20q0 13 -11 25t-18.5 16t-24.5 13q-22 11 -34 18.5t-34 26t-33 45.5t-11 62q0 69 40 110t109 41q93 0 137 -111l-93 -49q-11 31 -40 31q-10 0 -18.5 -8t-8.5 -19q0 -15 10.5 -25.5t39.5 -26.5t39 -22q76 -51 76 -138
q0 -62 -42 -105t-102 -43q-102 0 -153 108z" />
    <glyph glyph-name="t" unicode="t" horiz-adv-x="432" 
d="M151 500v144h136v-144h115v-122h-115v-378h-136v378h-118v122h118z" />
    <glyph glyph-name="u" unicode="u" horiz-adv-x="535" 
d="M490 500v-500h-127v19q-35 -27 -96 -27q-106 0 -164.5 57.5t-58.5 163.5v287h136v-285q0 -36 25.5 -61.5t61.5 -25.5t61.5 23t25.5 58v291h136z" />
    <glyph glyph-name="v" unicode="v" horiz-adv-x="478" 
d="M320 500h146l-174 -500h-105l-174 500h145l79 -268v-2q0 -2 2 -2l2 2q0 1 1 2z" />
    <glyph glyph-name="w" unicode="w" horiz-adv-x="721" 
d="M571 0h-115l-99 278l-45 -135q-10 -28 -22 -64.5t-19 -56t-8 -22.5h-116l-135 500h142q17 -68 31 -125.5t20.5 -86t11 -49t6 -26t2.5 -5.5t3 2l79 289h106q20 -66 36 -121.5t24 -83.5t13.5 -48.5t7 -26.5t2.5 -6t3 2l65 285h142z" />
    <glyph glyph-name="x" unicode="x" horiz-adv-x="515" 
d="M341 245l156 -245h-165l-70 136q-2 2 -5 2q-4 0 -4 -2l-70 -136h-165l156 245q0 2 1 3l1 2q0 1 -1 3t-1 3l-153 244h162l70 -135q1 -3 4 -3t4 3l70 135h162l-152 -244q-2 -2 -2 -6q0 -3 2 -5z" />
    <glyph glyph-name="y" unicode="y" horiz-adv-x="477" 
d="M464 500l-241 -707h-145l88 250q1 2 1 9q0 6 -1 8l-153 440h146l78 -268q1 -1 1 -2q0 -2 1 -2l2 2q0 1 1 2l78 268h144z" />
    <glyph glyph-name="z" unicode="z" horiz-adv-x="427" 
d="M208 350q4 4 4 8q0 8 -17 8h-156v134h349v-102q1 0 -42.5 -61t-88 -125t-44.5 -70q0 -7 15 -7h160v-135h-349v107l86 121z" />
    <glyph glyph-name="braceleft" unicode="{" horiz-adv-x="387" 
d="M56 292v97q52 4 75 35.5t23 97.5v127q0 67 10 102t43 55q38 22 126 22l1 -86q-46 -4 -60.5 -27.5t-14.5 -82.5v-128q0 -73 -21 -109t-84 -53q-4 0 -4 -2t4 -2q63 -17 84 -53t21 -109v-128q0 -59 14.5 -82.5t60.5 -27.5l-1 -86q-88 0 -126 22q-34 20 -43.5 54t-9.5 103
v127q0 66 -23 97.5t-75 36.5z" />
    <glyph glyph-name="bar" unicode="|" horiz-adv-x="228" 
d="M171 750v-750h-114v750h114z" />
    <glyph glyph-name="braceright" unicode="}" horiz-adv-x="392" 
d="M334 389v-97q-52 -5 -75 -36.5t-23 -97.5v-127q0 -69 -9.5 -103t-43.5 -54q-38 -22 -126 -22l-1 86q46 4 60.5 27.5t14.5 82.5v128q0 73 21 109t84 53q4 0 4 2t-4 2q-63 17 -84 53t-21 109v128q0 59 -14.5 82.5t-60.5 27.5l1 86q88 0 126 -22q33 -20 43 -55t10 -102v-127
q0 -66 23 -97.5t75 -35.5z" />
    <glyph glyph-name="asciitilde" unicode="~" horiz-adv-x="630" 
d="M54 173l1 121q79 34 149 34h4q37 -1 114.5 -19.5t87.5 -18.5h5q64 2 160 40v-109q-12 -12 -59 -27.5t-99 -17.5h-11q-24 0 -85.5 19t-106.5 20h-7q-52 0 -153 -42z" />
    <glyph glyph-name="exclamdown" unicode="&#xa1;" horiz-adv-x="226" 
d="M182 577v-581h-136v581h136zM182 682q0 -29 -20 -49t-49 -20q-27 0 -47.5 20t-20.5 49q0 27 20.5 47.5t47.5 20.5q29 0 49 -20.5t20 -47.5z" />
    <glyph glyph-name="cent" unicode="&#xa2;" horiz-adv-x="563" 
d="M338 594v-91q52 -9 96.5 -38.5t71.5 -69.5l-98 -70q-3 3 -13.5 14.5t-16 16.5t-17 12t-23.5 11v-256q40 15 69 55q4 4 7 10l109 -54q-30 -55 -78 -91t-107 -47v-81h-114v86q-83 23 -136 92t-53 158q0 88 53 156t136 91v96h114zM159 251q0 -78 65 -116v232
q-65 -40 -65 -116z" />
    <glyph glyph-name="sterling" unicode="&#xa3;" horiz-adv-x="648" 
d="M99 0v144h60q20 0 33 14.5t13 44.5q0 18 -21 58.5t-45 69.5h-83v120h49q-11 51 -11 68q0 103 68 171t171 68q113 0 184 -71l-107 -96q-23 23 -75 23q-41 0 -69 -26t-28 -61q0 -31 22 -76h204v-120h-158q43 -72 43 -121q0 -33 -16 -65h42q45 0 65.5 19.5t22.5 62.5h131
q0 -98 -70 -162.5t-175 -64.5h-250z" />
    <glyph glyph-name="currency" unicode="&#xa4;" horiz-adv-x="705" 
d="M57 109l96 97q-43 62 -43 135q0 59 45 136l-99 98l61 61l99 -99q77 44 140 44q56 0 131 -44l99 98l61 -60l-97 -97q45 -68 45 -138q0 -60 -43 -134l97 -97l-60 -61l-97 97q-64 -46 -141 -46q-60 0 -137 45l-97 -96zM353 483q-57 0 -99 -42.5t-42 -99.5t41.5 -99t99.5 -42
t99 41.5t41 99.5q0 57 -41.5 99.5t-98.5 42.5z" />
    <glyph glyph-name="yen" unicode="&#xa5;" horiz-adv-x="664" 
d="M519 535h92v-81h-127l-41 -94h168v-81h-203l-4 -11v-268h-143v268l-5 11h-204v81h170l-42 94h-128v81h93l-93 215h157l120 -300q1 -3 3 -3t3 3l120 299h156z" />
    <glyph glyph-name="brokenbar" unicode="&#xa6;" horiz-adv-x="227" 
d="M57 -10v312h114v-312h-114zM57 455v315h114v-315h-114z" />
    <glyph glyph-name="section" unicode="&#xa7;" horiz-adv-x="643" 
d="M315 758q109 0 180 -67v-152q-21 22 -48 43q-59 44 -114 44q-30 0 -52 -19.5t-22 -49.5q0 -26 20.5 -40.5t70 -32t75.5 -31.5q37 -16 61.5 -29t50.5 -33.5t39 -47.5t13 -60q0 -62 -25 -100t-81 -78q43 -56 43 -105q0 -83 -62.5 -133.5t-148.5 -50.5q-137 0 -213 92
q-33 40 -46 92h163q9 -15 20 -26q26 -26 58 -26q27 0 50 15.5t23 41.5q0 16 -7.5 29t-26.5 24.5t-32.5 18t-45.5 18.5t-45 17q-74 30 -116 69.5t-42 111.5q0 56 21 95.5t68 76.5q-25 27 -36 49.5t-11 55.5q0 87 63 137.5t155 50.5zM256 243l126 -53q51 30 51 73q0 47 -74 75
l-110 43q-44 -35 -44 -71q0 -43 51 -67z" />
    <glyph glyph-name="dieresis" unicode="&#xa8;" horiz-adv-x="453" 
d="M262 683q0 29 19.5 48t47.5 19q29 0 48.5 -19t19.5 -48q0 -28 -19.5 -47.5t-48.5 -19.5q-28 0 -47.5 19.5t-19.5 47.5zM56 683q0 29 19.5 48t48.5 19q28 0 47.5 -19t19.5 -48q0 -28 -19.5 -47.5t-47.5 -19.5q-29 0 -48.5 19.5t-19.5 47.5z" />
    <glyph glyph-name="copyright" unicode="&#xa9;" horiz-adv-x="835" 
d="M55 360q0 149 107.5 256t255.5 107q152 0 257 -106t105 -257q0 -149 -105.5 -255.5t-256.5 -106.5q-148 0 -255.5 107t-107.5 255zM110 360q0 -128 90 -217.5t218 -89.5t220 89.5t92 217.5t-92 218t-220 90t-218 -90t-90 -218zM423 470q-46 0 -78 -32t-32 -76
q0 -46 32 -78t78 -32q47 0 72 21l49 -60q-46 -39 -121 -39q-79 0 -133.5 54.5t-54.5 131.5q0 79 54.5 133.5t133.5 54.5q75 0 121 -39l-49 -60q-25 21 -72 21z" />
    <glyph glyph-name="ordfeminine" unicode="&#xaa;" horiz-adv-x="420" 
d="M125 552q0 -35 23.5 -59t58.5 -24t59 24t24 59t-24 59t-59 24t-58.5 -24t-23.5 -59zM34 552q0 72 50.5 122.5t122.5 50.5q46 0 90 -26l1 26h84v-341l-85 20q-40 -25 -90 -25q-72 0 -122.5 50.5t-50.5 122.5z" />
    <glyph glyph-name="guillemotleft" unicode="&#xab;" horiz-adv-x="521" 
d="M382 61l-137 213l132 211l96 -69l-95 -142l92 -140zM184 61l-137 213l132 211l96 -69l-95 -142l92 -140z" />
    <glyph glyph-name="logicalnot" unicode="&#xac;" horiz-adv-x="630" 
d="M49 419h524v-341h-114v227h-410v114z" />
    <glyph glyph-name="registered" unicode="&#xae;" horiz-adv-x="875" 
d="M55 375q0 157 113 270t269 113q160 0 271.5 -112.5t111.5 -270.5t-111.5 -270.5t-271.5 -112.5q-156 0 -269 113t-113 270zM113 375q0 -135 95 -230t229 -95q136 0 233.5 95.5t97.5 229.5t-97.5 229.5t-233.5 95.5q-134 0 -229 -95t-95 -230zM396 525v-125q0 -4 4 -4h50
q26 0 41 20t15 48q0 26 -15 45t-41 19h-50q-4 0 -4 -3zM593 151h-89l-105 174q-3 0 -3 -2v-172h-77v446h134q61 0 96 -37t35 -96q0 -56 -26.5 -90t-72.5 -39q-1 0 -1 -3z" />
    <glyph glyph-name="macron" unicode="&#xaf;" horiz-adv-x="428" 
d="M56 730h315v-114h-315v114z" />
    <glyph glyph-name="degree" unicode="&#xb0;" horiz-adv-x="432" 
d="M55 563q0 67 47 114t114 47t114 -47t47 -114t-47 -114t-114 -47t-114 47t-47 114zM123 563q0 -38 27.5 -65.5t65.5 -27.5t65.5 27.5t27.5 65.5t-27.5 65.5t-65.5 27.5t-65.5 -27.5t-27.5 -65.5z" />
    <glyph glyph-name="plusminus" unicode="&#xb1;" horiz-adv-x="638" 
d="M262 391v123h114v-123h208v-114h-208v-123h-114v123h-208v114h208zM54 120h530v-114h-530v114z" />
    <glyph glyph-name="twosuperior" unicode="&#xb2;" horiz-adv-x="359" 
d="M56 300l-1 104q5 7 83.5 79t91.5 82q22 20 22 47q0 25 -17 42.5t-43 17.5q-20 0 -35.5 -12t-21.5 -30l-81 28q14 45 52 72.5t86 27.5q61 0 104 -42.5t43 -103.5q0 -59 -48 -107q-12 -12 -76 -66l-61 -51q0 -2 2 -2h184v-86h-284z" />
    <glyph glyph-name="threesuperior" unicode="&#xb3;" horiz-adv-x="358" 
d="M105 637l-33 66q32 56 98 56q46 0 79.5 -33.5t33.5 -80.5q0 -41 -27 -71q-2 -2 -2 -3q0 -2 2 -2q69 -47 69 -127q0 -61 -43 -104.5t-105 -43.5q-74 0 -119 63q-22 29 -22 64l80 11q5 -23 22 -37t40 -14q26 0 43.5 20t17.5 48q0 26 -16 45.5t-40 25.5l-41 11v64l38 10
q23 6 23 36q0 14 -9.5 24t-23.5 10q-20 0 -45 -19q-14 -12 -20 -19z" />
    <glyph glyph-name="acute" unicode="&#xb4;" horiz-adv-x="339" 
d="M53 687l186 79l48 -106l-172 -70z" />
    <glyph glyph-name="mu" unicode="&#xb5;" horiz-adv-x="582" 
d="M57 -218v756h143v-306q0 -43 27.5 -68t65.5 -25t65.5 25t27.5 68v306h143v-539l-145 64q-27 -67 -92 -67q-62 0 -92 42v-256h-143z" />
    <glyph glyph-name="mu" unicode="&#x3bc;" horiz-adv-x="582" 
d="M57 -218v756h143v-306q0 -43 27.5 -68t65.5 -25t65.5 25t27.5 68v306h143v-539l-145 64q-27 -67 -92 -67q-62 0 -92 42v-256h-143z" />
    <glyph glyph-name="paragraph" unicode="&#xb6;" horiz-adv-x="654" 
d="M275 -212v575q-108 0 -165.5 44.5t-57.5 126.5q0 100 64.5 139t181.5 39h299v-924h-114v809h-94v-809h-114z" />
    <glyph glyph-name="periodcentered" unicode="&#xb7;" horiz-adv-x="227" 
d="M55 376q0 24 17.5 42.5t43.5 18.5q23 0 39.5 -18.5t16.5 -42.5q0 -23 -16.5 -39.5t-39.5 -16.5q-27 0 -44 16t-17 40z" />
    <glyph glyph-name="cedilla" unicode="&#xb8;" horiz-adv-x="308" 
d="M136 0h60l-39 -51q3 0 11 1.5t11 1.5q33 0 54 -20.5t21 -55.5q0 -45 -34.5 -69.5t-76.5 -24.5q-16 0 -44.5 5t-41.5 12v63q5 -2 22 -7q23 -7 41 -7h9q29 0 29 28q0 13 -5.5 19.5t-11.5 7.5t-17 1h-57z" />
    <glyph glyph-name="onesuperior" unicode="&#xb9;" horiz-adv-x="241" 
d="M-23 669v81h158v-450h-86v366q0 3 -4 3h-68z" />
    <glyph glyph-name="ordmasculine" unicode="&#xba;" horiz-adv-x="414" 
d="M35 551q0 71 50.5 121.5t123.5 50.5q71 0 121.5 -50.5t50.5 -121.5q0 -73 -50.5 -123.5t-121.5 -50.5q-73 0 -123.5 50.5t-50.5 123.5zM127 551q0 -35 23.5 -58.5t58.5 -23.5q34 0 57.5 23.5t23.5 58.5q0 34 -23.5 57.5t-57.5 23.5q-35 0 -58.5 -23.5t-23.5 -57.5z" />
    <glyph glyph-name="guillemotright" unicode="&#xbb;" horiz-adv-x="521" 
d="M138 485l137 -213l-132 -211l-96 69l95 142l-92 140zM336 485l137 -213l-132 -211l-96 69l95 142l-92 140z" />
    <glyph glyph-name="onequarter" unicode="&#xbc;" horiz-adv-x="822" 
d="M437 79v91q34 54 98 157q88 148 100 160h95v-317h46v-95h-46v-75h-93v75q0 4 -4 4h-196zM43 662v88h170v-489h-93v397q0 4 -4 4h-73zM303 -7l-61 8l216 756l60 -14zM635 333l-84 -144l-12 -21q0 -3 2 -3h92q4 0 4 4q0 9 -0.5 46t-0.5 59q-1 18 -1 59z" />
    <glyph glyph-name="onehalf" unicode="&#xbd;" horiz-adv-x="836" 
d="M43 662v88h170v-489h-93v397q0 4 -4 4h-73zM303 -7l-61 8l216 756l60 -14zM492 0l-1 111q5 5 91.5 84t94.5 87q24 21 24 50q0 26 -18.5 45t-45.5 19q-20 0 -37 -13t-24 -32l-86 30q15 46 56 76t91 30q64 0 110 -45.5t46 -109.5q0 -63 -51 -114q-26 -26 -81 -70l-65 -54
q0 -2 2 -2h196v-92h-302z" />
    <glyph glyph-name="threequarters" unicode="&#xbe;" horiz-adv-x="920" 
d="M520 79v91q34 54 98 157q88 148 100 160h95v-317h46v-95h-46v-75h-93v75q0 4 -4 4h-196zM110 620l-35 71q35 60 104 60q50 0 85.5 -35.5t35.5 -86.5q0 -45 -28 -76l-2 -4v-1q0 -1 2 -1q74 -49 74 -135q0 -65 -46.5 -112t-112.5 -47q-75 0 -127 67q-24 35 -24 69l86 12
q5 -24 23.5 -39.5t42.5 -15.5q27 0 46 21.5t19 51.5q0 27 -17 48t-43 28l-43 12v68l40 11q25 6 25 39q0 14 -10.5 25t-24.5 11q-24 0 -49 -21zM386 -7l-61 8l216 756l60 -14zM718 333l-84 -144l-12 -21q0 -3 2 -3h92q4 0 4 4q0 9 -0.5 46t-0.5 59q-1 18 -1 59z" />
    <glyph glyph-name="questiondown" unicode="&#xbf;" horiz-adv-x="450" 
d="M171 690q0 27 20 47.5t49 20.5q27 0 47.5 -20.5t20.5 -47.5q0 -29 -20.5 -49t-47.5 -20q-29 0 -49 20t-20 49zM174 581l140 1q17 -76 17 -125q0 -41 -16.5 -76.5t-39.5 -60t-46 -46t-39.5 -44.5t-16.5 -46q0 -47 43 -47q20 0 43 13.5t34.5 25t31.5 32.5l88 -90
q-24 -32 -59 -61q-73 -61 -143 -61q-87 0 -135.5 46t-48.5 136q0 54 17 92.5t41.5 60.5t48.5 41.5t41 46.5t17 63t-18 99z" />
    <glyph glyph-name="Agrave" unicode="&#xc0;" horiz-adv-x="750" 
d="M730 0h-153l-59 135q-2 5 -8 5h-271q-6 0 -8 -5l-56 -135h-154l299 750h109zM306 966l186 -79l-62 -97l-172 70zM377 493l-2 2q-2 0 -2 -2q-1 -1 -1 -2l-84 -211q-1 -1 -1 -4t4 -3h167q4 0 4 4q0 2 -1 3l-83 211q-1 1 -1 2z" />
    <glyph glyph-name="Aacute" unicode="&#xc1;" horiz-adv-x="750" 
d="M730 0h-153l-59 135q-2 5 -8 5h-271q-6 0 -8 -5l-56 -135h-154l299 750h109zM258 887l186 79l48 -106l-172 -70zM377 493l-2 2q-2 0 -2 -2q-1 -1 -1 -2l-84 -211q-1 -1 -1 -4t4 -3h167q4 0 4 4q0 2 -1 3l-83 211q-1 1 -1 2z" />
    <glyph glyph-name="Acircumflex" unicode="&#xc2;" horiz-adv-x="750" 
d="M730 0h-153l-59 135q-2 5 -8 5h-271q-6 0 -8 -5l-56 -135h-154l299 750h109zM223 906l150 58l153 -64l-64 -97l-89 39l-87 -33zM377 493l-2 2q-2 0 -2 -2q-1 -1 -1 -2l-84 -211q-1 -1 -1 -4t4 -3h167q4 0 4 4q0 2 -1 3l-83 211q-1 1 -1 2z" />
    <glyph glyph-name="Atilde" unicode="&#xc3;" horiz-adv-x="750" 
d="M730 0h-153l-59 135q-2 5 -8 5h-271q-6 0 -8 -5l-56 -135h-154l299 750h109zM208 804l1 121l14 7t22 10t26.5 8t32.5 4q25 0 68 -12.5t56 -12.5q49 0 113 41v-109q-2 -1 -14 -11t-22 -16.5t-27.5 -12.5t-34.5 -6q-20 0 -68 13t-68 13q-71 0 -99 -37zM377 493l-2 2
q-2 0 -2 -2q-1 -1 -1 -2l-84 -211q-1 -1 -1 -4t4 -3h167q4 0 4 4q0 2 -1 3l-83 211q-1 1 -1 2z" />
    <glyph glyph-name="Adieresis" unicode="&#xc4;" horiz-adv-x="750" 
d="M730 0h-153l-59 135q-2 5 -8 5h-271q-6 0 -8 -5l-56 -135h-154l299 750h109zM377 493l-2 2q-2 0 -2 -2q-1 -1 -1 -2l-84 -211q-1 -1 -1 -4t4 -3h167q4 0 4 4q0 2 -1 3l-83 211q-1 1 -1 2zM410 883q0 29 19.5 48t47.5 19q29 0 48.5 -19t19.5 -48q0 -28 -19.5 -47.5
t-48.5 -19.5q-28 0 -47.5 19.5t-19.5 47.5zM204 883q0 29 19.5 48t48.5 19q28 0 47.5 -19t19.5 -48q0 -28 -19.5 -47.5t-47.5 -19.5q-29 0 -48.5 19.5t-19.5 47.5z" />
    <glyph glyph-name="Aring" unicode="&#xc5;" horiz-adv-x="750" 
d="M730 0h-153l-59 135q-2 5 -8 5h-271q-6 0 -8 -5l-56 -135h-154l299 750h109zM276 878q0 42 28.5 70.5t70.5 28.5t70.5 -28.5t28.5 -70.5t-28.5 -70.5t-70.5 -28.5t-70.5 28.5t-28.5 70.5zM377 493l-2 2q-2 0 -2 -2q-1 -1 -1 -2l-84 -211q-1 -1 -1 -4t4 -3h167q4 0 4 4
q0 2 -1 3l-83 211q-1 1 -1 2zM311 878q0 -26 19 -45t45 -19t45 19t19 45t-19 45t-45 19t-45 -19t-19 -45z" />
    <glyph glyph-name="AE" unicode="&#xc6;" horiz-adv-x="932" 
d="M614 299v-150q0 -6 6 -6h263v-143h-412v140h-217q-6 0 -8 -5l-71 -135h-154l367 750h495v-143h-263q-6 0 -6 -6v-147q0 -6 6 -6h263v-143h-263q-6 0 -6 -6zM471 273v333q-2 0 -2 -2q-1 -1 -1 -2l-159 -322q-1 -1 -1 -4t4 -3h159z" />
    <glyph glyph-name="Ccedilla" unicode="&#xc7;" horiz-adv-x="713" 
d="M437 615q-102 -4 -171 -72.5t-69 -167.5q0 -97 72 -165.5t168 -74.5q85 0 151 53l88 -114q-13 -13 -35.5 -28t-80.5 -34.5t-123 -19.5q-23 0 -44 3l-35 -46q3 0 10.5 1.5t11.5 1.5q33 0 54 -20.5t21 -55.5q0 -45 -34.5 -69.5t-76.5 -24.5q-16 0 -44.5 5t-41.5 12v63
q5 -2 22 -7q23 -7 41 -7h9q29 0 29 28q0 13 -5.5 19.5t-11.5 7.5t-17 1h-57l69 96h22q-132 26 -218.5 131.5t-86.5 243.5q0 159 112 271t271 112q135 0 239 -82l-88 -114q-66 53 -151 53z" />
    <glyph glyph-name="Egrave" unicode="&#xc8;" horiz-adv-x="527" 
d="M200 299v-150q0 -6 6 -6h263v-143h-412v750h412v-143h-263q-6 0 -6 -6v-147q0 -6 6 -6h263v-143h-263q-6 0 -6 -6zM194 966l186 -79l-62 -97l-172 70z" />
    <glyph glyph-name="Eacute" unicode="&#xc9;" horiz-adv-x="527" 
d="M200 299v-150q0 -6 6 -6h263v-143h-412v750h412v-143h-263q-6 0 -6 -6v-147q0 -6 6 -6h263v-143h-263q-6 0 -6 -6zM146 887l186 79l48 -106l-172 -70z" />
    <glyph glyph-name="Ecircumflex" unicode="&#xca;" horiz-adv-x="527" 
d="M200 299v-150q0 -6 6 -6h263v-143h-412v750h412v-143h-263q-6 0 -6 -6v-147q0 -6 6 -6h263v-143h-263q-6 0 -6 -6zM112 906l150 58l153 -64l-64 -97l-89 39l-87 -33z" />
    <glyph glyph-name="Edieresis" unicode="&#xcb;" horiz-adv-x="527" 
d="M200 299v-150q0 -6 6 -6h263v-143h-412v750h412v-143h-263q-6 0 -6 -6v-147q0 -6 6 -6h263v-143h-263q-6 0 -6 -6zM299 883q0 29 19.5 48t47.5 19q29 0 48.5 -19t19.5 -48q0 -28 -19.5 -47.5t-48.5 -19.5q-28 0 -47.5 19.5t-19.5 47.5zM93 883q0 29 19.5 48t48.5 19
q28 0 47.5 -19t19.5 -48q0 -28 -19.5 -47.5t-47.5 -19.5q-29 0 -48.5 19.5t-19.5 47.5z" />
    <glyph glyph-name="Igrave" unicode="&#xcc;" horiz-adv-x="257" 
d="M57 750h143v-750h-143v750zM61 966l186 -79l-62 -97l-172 70z" />
    <glyph glyph-name="Iacute" unicode="&#xcd;" horiz-adv-x="257" 
d="M57 750h143v-750h-143v750zM13 887l186 79l48 -106l-172 -70z" />
    <glyph glyph-name="Icircumflex" unicode="&#xce;" horiz-adv-x="257" 
d="M57 750h143v-750h-143v750zM-22 906l150 58l153 -64l-64 -97l-89 39l-87 -33z" />
    <glyph glyph-name="Idieresis" unicode="&#xcf;" horiz-adv-x="257" 
d="M57 750h143v-750h-143v750zM165 883q0 29 19.5 48t47.5 19q29 0 48.5 -19t19.5 -48q0 -28 -19.5 -47.5t-48.5 -19.5q-28 0 -47.5 19.5t-19.5 47.5zM-41 883q0 29 19.5 48t48.5 19q28 0 47.5 -19t19.5 -48q0 -28 -19.5 -47.5t-47.5 -19.5q-29 0 -48.5 19.5t-19.5 47.5z
" />
    <glyph glyph-name="Eth" unicode="&#xd0;" horiz-adv-x="834" 
d="M155 0l1 299h-102v114h102v337h246q156 0 266.5 -110.5t110.5 -264.5t-110.5 -264.5t-266.5 -110.5h-247zM299 413h103v-114h-103v-150q0 -6 6 -6h97q102 0 168 65t66 167q0 103 -63 167.5t-165 64.5h-103q-6 0 -6 -6v-188z" />
    <glyph glyph-name="Ntilde" unicode="&#xd1;" horiz-adv-x="711" 
d="M57 749l134 1l320 -475v474h143v-749h-133l-321 475v-475h-143v749zM189 804l1 121l14 7t22 10t26.5 8t32.5 4q25 0 68 -12.5t56 -12.5q49 0 113 41v-109q-2 -1 -14 -11t-22 -16.5t-27.5 -12.5t-34.5 -6q-20 0 -68 13t-68 13q-71 0 -99 -37z" />
    <glyph glyph-name="Ograve" unicode="&#xd2;" horiz-adv-x="876" 
d="M55 375q0 159 112 271t271 112t271 -112t112 -271t-112 -271t-271 -112t-271 112t-112 271zM198 375q0 -99 70.5 -169.5t169.5 -70.5t169.5 70.5t70.5 169.5t-70.5 169.5t-169.5 70.5t-169.5 -70.5t-70.5 -169.5zM369 966l186 -79l-62 -97l-172 70z" />
    <glyph glyph-name="Oacute" unicode="&#xd3;" horiz-adv-x="876" 
d="M55 375q0 159 112 271t271 112t271 -112t112 -271t-112 -271t-271 -112t-271 112t-112 271zM198 375q0 -99 70.5 -169.5t169.5 -70.5t169.5 70.5t70.5 169.5t-70.5 169.5t-169.5 70.5t-169.5 -70.5t-70.5 -169.5zM321 887l186 79l48 -106l-172 -70z" />
    <glyph glyph-name="Ocircumflex" unicode="&#xd4;" horiz-adv-x="876" 
d="M55 375q0 159 112 271t271 112t271 -112t112 -271t-112 -271t-271 -112t-271 112t-112 271zM198 375q0 -99 70.5 -169.5t169.5 -70.5t169.5 70.5t70.5 169.5t-70.5 169.5t-169.5 70.5t-169.5 -70.5t-70.5 -169.5zM286 906l150 58l153 -64l-64 -97l-89 39l-87 -33z" />
    <glyph glyph-name="Otilde" unicode="&#xd5;" horiz-adv-x="876" 
d="M55 375q0 159 112 271t271 112t271 -112t112 -271t-112 -271t-271 -112t-271 112t-112 271zM198 375q0 -99 70.5 -169.5t169.5 -70.5t169.5 70.5t70.5 169.5t-70.5 169.5t-169.5 70.5t-169.5 -70.5t-70.5 -169.5zM271 804l1 121l14 7t22 10t26.5 8t32.5 4q25 0 68 -12.5
t56 -12.5q49 0 113 41v-109q-2 -1 -14 -11t-22 -16.5t-27.5 -12.5t-34.5 -6q-20 0 -68 13t-68 13q-71 0 -99 -37z" />
    <glyph glyph-name="Odieresis" unicode="&#xd6;" horiz-adv-x="876" 
d="M55 375q0 159 112 271t271 112t271 -112t112 -271t-112 -271t-271 -112t-271 112t-112 271zM198 375q0 -99 70.5 -169.5t169.5 -70.5t169.5 70.5t70.5 169.5t-70.5 169.5t-169.5 70.5t-169.5 -70.5t-70.5 -169.5zM473 883q0 29 19.5 48t47.5 19q29 0 48.5 -19t19.5 -48
q0 -28 -19.5 -47.5t-48.5 -19.5q-28 0 -47.5 19.5t-19.5 47.5zM267 883q0 29 19.5 48t48.5 19q28 0 47.5 -19t19.5 -48q0 -28 -19.5 -47.5t-47.5 -19.5q-29 0 -48.5 19.5t-19.5 47.5z" />
    <glyph glyph-name="multiply" unicode="&#xd7;" horiz-adv-x="574" 
d="M219 255l-134 134l81 80l133 -133l136 136l81 -81l-136 -136l134 -134l-80 -81l-135 135l-136 -137l-81 81z" />
    <glyph glyph-name="Oslash" unicode="&#xd8;" horiz-adv-x="876" 
d="M344 -47h-71l21 67q-107 42 -173 139t-66 216q0 159 112 271t271 112q34 0 67 -6l15 48h69l-18 -66q111 -40 180.5 -138.5t69.5 -220.5q0 -159 -112 -271t-271 -112q-36 0 -79 8zM438 135q99 0 169.5 70.5t70.5 169.5q0 74 -40.5 133.5t-106.5 87.5l-132 -458
q18 -3 39 -3zM198 375q0 -70 37 -127.5t99 -88.5l131 454q-18 2 -27 2q-99 0 -169.5 -70.5t-70.5 -169.5z" />
    <glyph glyph-name="Ugrave" unicode="&#xd9;" horiz-adv-x="607" 
d="M56 213v536h143v-516q0 -42 34 -68.5t73 -26.5q40 0 71 26.5t31 64.5v520h143v-536q0 -93 -73.5 -155.5t-171.5 -62.5q-99 0 -174.5 62.5t-75.5 155.5zM234 966l186 -79l-62 -97l-172 70z" />
    <glyph glyph-name="Uacute" unicode="&#xda;" horiz-adv-x="607" 
d="M56 213v536h143v-516q0 -42 34 -68.5t73 -26.5q40 0 71 26.5t31 64.5v520h143v-536q0 -93 -73.5 -155.5t-171.5 -62.5q-99 0 -174.5 62.5t-75.5 155.5zM186 887l186 79l48 -106l-172 -70z" />
    <glyph glyph-name="Ucircumflex" unicode="&#xdb;" horiz-adv-x="607" 
d="M56 213v536h143v-516q0 -42 34 -68.5t73 -26.5q40 0 71 26.5t31 64.5v520h143v-536q0 -93 -73.5 -155.5t-171.5 -62.5q-99 0 -174.5 62.5t-75.5 155.5zM152 906l150 58l153 -64l-64 -97l-89 39l-87 -33z" />
    <glyph glyph-name="Udieresis" unicode="&#xdc;" horiz-adv-x="607" 
d="M56 213v536h143v-516q0 -42 34 -68.5t73 -26.5q40 0 71 26.5t31 64.5v520h143v-536q0 -93 -73.5 -155.5t-171.5 -62.5q-99 0 -174.5 62.5t-75.5 155.5zM339 883q0 29 19.5 48t47.5 19q29 0 48.5 -19t19.5 -48q0 -28 -19.5 -47.5t-48.5 -19.5q-28 0 -47.5 19.5t-19.5 47.5
zM133 883q0 29 19.5 48t48.5 19q28 0 47.5 -19t19.5 -48q0 -28 -19.5 -47.5t-47.5 -19.5q-29 0 -48.5 19.5t-19.5 47.5z" />
    <glyph glyph-name="Yacute" unicode="&#xdd;" horiz-adv-x="594" 
d="M16 750h158l120 -300q2 -3 3 -3t3 3l121 299h156l-208 -479v-270h-143v270zM180 887l186 79l48 -106l-172 -70z" />
    <glyph glyph-name="Thorn" unicode="&#xde;" horiz-adv-x="873" 
d="M200 463v-157q0 -6 6 -6h82q39 0 57 27.5t18 59.5q0 30 -17.5 56t-57.5 26h-82q-6 0 -6 -6zM57 0v750h143v-139q16 0 37 0.5t36 0.5h15q95 0 156.5 -64.5t61.5 -160.5q0 -97 -61.5 -163.5t-156.5 -66.5h-82q-6 0 -6 -5v-152h-143z" />
    <glyph glyph-name="germandbls" unicode="&#xdf;" horiz-adv-x="560" 
d="M258 750h14q83 0 142 -61.5t59 -141.5q0 -75 -43 -132q87 -71 87 -182q0 -97 -62.5 -165t-156.5 -68h-71v143h65q38 0 60 28t22 68q0 38 -29.5 66.5t-64.5 28.5v123q28 2 42 23.5t14 53.5q0 30 -21 51.5t-53 21.5q-17 0 -29.5 -5.5t-18.5 -12.5t-9.5 -16t-4 -13.5
t-0.5 -7.5v-552h-143v552q0 82 61 140t140 58z" />
    <glyph glyph-name="agrave" unicode="&#xe0;" horiz-adv-x="587" 
d="M161 250q0 -52 35.5 -88t87.5 -36t87.5 36t35.5 88t-35.5 88t-87.5 36t-87.5 -36t-35.5 -88zM419 500h124v-500h-124v29q-59 -37 -135 -37q-106 0 -182 76t-76 182t76 182t182 76q73 0 135 -38v30zM224 766l186 -79l-62 -97l-172 70z" />
    <glyph glyph-name="aacute" unicode="&#xe1;" horiz-adv-x="587" 
d="M161 250q0 -52 35.5 -88t87.5 -36t87.5 36t35.5 88t-35.5 88t-87.5 36t-87.5 -36t-35.5 -88zM419 500h124v-500h-124v29q-59 -37 -135 -37q-106 0 -182 76t-76 182t76 182t182 76q73 0 135 -38v30zM176 687l186 79l48 -106l-172 -70z" />
    <glyph glyph-name="acircumflex" unicode="&#xe2;" horiz-adv-x="587" 
d="M161 250q0 -52 35.5 -88t87.5 -36t87.5 36t35.5 88t-35.5 88t-87.5 36t-87.5 -36t-35.5 -88zM419 500h124v-500h-124v29q-59 -37 -135 -37q-106 0 -182 76t-76 182t76 182t182 76q73 0 135 -38v30zM142 706l150 58l153 -64l-64 -97l-89 39l-87 -33z" />
    <glyph glyph-name="atilde" unicode="&#xe3;" horiz-adv-x="587" 
d="M161 250q0 -52 35.5 -88t87.5 -36t87.5 36t35.5 88t-35.5 88t-87.5 36t-87.5 -36t-35.5 -88zM419 500h124v-500h-124v29q-59 -37 -135 -37q-106 0 -182 76t-76 182t76 182t182 76q73 0 135 -38v30zM127 604l1 121l14 7t22 10t26.5 8t32.5 4q25 0 68 -12.5t56 -12.5
q49 0 113 41v-109q-2 -1 -14 -11t-22 -16.5t-27.5 -12.5t-34.5 -6q-20 0 -68 13t-68 13q-71 0 -99 -37z" />
    <glyph glyph-name="adieresis" unicode="&#xe4;" horiz-adv-x="587" 
d="M161 250q0 -52 35.5 -88t87.5 -36t87.5 36t35.5 88t-35.5 88t-87.5 36t-87.5 -36t-35.5 -88zM419 500h124v-500h-124v29q-59 -37 -135 -37q-106 0 -182 76t-76 182t76 182t182 76q73 0 135 -38v30zM329 683q0 29 19.5 48t47.5 19q29 0 48.5 -19t19.5 -48
q0 -28 -19.5 -47.5t-48.5 -19.5q-28 0 -47.5 19.5t-19.5 47.5zM123 683q0 29 19.5 48t48.5 19q28 0 47.5 -19t19.5 -48q0 -28 -19.5 -47.5t-47.5 -19.5q-29 0 -48.5 19.5t-19.5 47.5z" />
    <glyph glyph-name="aring" unicode="&#xe5;" horiz-adv-x="587" 
d="M161 250q0 -52 35.5 -88t87.5 -36t87.5 36t35.5 88t-35.5 88t-87.5 36t-87.5 -36t-35.5 -88zM419 500h124v-500h-124v29q-59 -37 -135 -37q-106 0 -182 76t-76 182t76 182t182 76q73 0 135 -38v30zM194 678q0 42 28.5 70.5t70.5 28.5t70.5 -28.5t28.5 -70.5t-28.5 -70.5
t-70.5 -28.5t-70.5 28.5t-28.5 70.5zM229 678q0 -26 19 -45t45 -19t45 19t19 45t-19 45t-45 19t-45 -19t-19 -45z" />
    <glyph glyph-name="ae" unicode="&#xe6;" horiz-adv-x="926" 
d="M681 116q58 0 135 40l55 -97q-51 -36 -96.5 -51.5t-106.5 -15.5q-70 0 -125 29v-21h-125v29q-59 -37 -134 -37q-106 0 -182 76t-76 182t76 182t182 76q72 0 134 -38l1 30h124v-22q56 29 118 29q109 0 169 -67.5t60 -178.5q0 -27 -3 -57h-327q-3 0 -3 -5q11 -37 45 -60
t79 -23zM161 250q0 -52 35.5 -88t87.5 -36t87.5 36t35.5 88t-35.5 88t-87.5 36t-87.5 -36t-35.5 -88zM656 388q-41 0 -72 -31q-29 -29 -29 -50q0 -3 4 -3h189q4 0 4 2q0 33 -22 55q-27 27 -74 27z" />
    <glyph glyph-name="ccedilla" unicode="&#xe7;" horiz-adv-x="550" 
d="M294 508q63 0 122 -32.5t90 -80.5l-101 -75q-1 1 -12 11t-14.5 12.5t-15 10t-19.5 10t-21 5.5t-27 3q-51 0 -86.5 -35.5t-35.5 -85.5q0 -51 35.5 -86.5t86.5 -35.5q61 0 108 65l119 -60q-32 -61 -88.5 -99t-125.5 -42l-33 -44q4 0 11 1.5t11 1.5q33 0 54 -20.5t21 -55.5
q0 -45 -34.5 -69.5t-76.5 -24.5q-16 0 -44.5 5t-41.5 12v63q5 -2 22 -7q23 -7 41 -7h9q29 0 29 28q0 13 -5.5 19.5t-11.5 7.5t-17 1h-57l66 92q-94 14 -155.5 86t-61.5 169q0 107 75.5 182t183.5 75z" />
    <glyph glyph-name="egrave" unicode="&#xe8;" horiz-adv-x="533" 
d="M300 116q58 0 135 40l55 -97q-51 -36 -96.5 -51.5t-106.5 -15.5q-113 0 -186 73t-73 186q0 107 73 181.5t179 74.5q109 0 169 -67.5t60 -178.5q0 -27 -3 -57h-327q-3 0 -3 -5q11 -37 45 -60t79 -23zM275 388q-41 0 -72 -31q-29 -29 -29 -50q0 -3 4 -3h189q4 0 4 2
q0 33 -22 55q-27 27 -74 27zM197 766l186 -79l-62 -97l-172 70z" />
    <glyph glyph-name="eacute" unicode="&#xe9;" horiz-adv-x="533" 
d="M300 116q58 0 135 40l55 -97q-51 -36 -96.5 -51.5t-106.5 -15.5q-113 0 -186 73t-73 186q0 107 73 181.5t179 74.5q109 0 169 -67.5t60 -178.5q0 -27 -3 -57h-327q-3 0 -3 -5q11 -37 45 -60t79 -23zM275 388q-41 0 -72 -31q-29 -29 -29 -50q0 -3 4 -3h189q4 0 4 2
q0 33 -22 55q-27 27 -74 27zM149 687l186 79l48 -106l-172 -70z" />
    <glyph glyph-name="ecircumflex" unicode="&#xea;" horiz-adv-x="533" 
d="M300 116q58 0 135 40l55 -97q-51 -36 -96.5 -51.5t-106.5 -15.5q-113 0 -186 73t-73 186q0 107 73 181.5t179 74.5q109 0 169 -67.5t60 -178.5q0 -27 -3 -57h-327q-3 0 -3 -5q11 -37 45 -60t79 -23zM275 388q-41 0 -72 -31q-29 -29 -29 -50q0 -3 4 -3h189q4 0 4 2
q0 33 -22 55q-27 27 -74 27zM115 706l150 58l153 -64l-64 -97l-89 39l-87 -33z" />
    <glyph glyph-name="edieresis" unicode="&#xeb;" horiz-adv-x="533" 
d="M300 116q58 0 135 40l55 -97q-51 -36 -96.5 -51.5t-106.5 -15.5q-113 0 -186 73t-73 186q0 107 73 181.5t179 74.5q109 0 169 -67.5t60 -178.5q0 -27 -3 -57h-327q-3 0 -3 -5q11 -37 45 -60t79 -23zM275 388q-41 0 -72 -31q-29 -29 -29 -50q0 -3 4 -3h189q4 0 4 2
q0 33 -22 55q-27 27 -74 27zM302 683q0 29 19.5 48t47.5 19q29 0 48.5 -19t19.5 -48q0 -28 -19.5 -47.5t-48.5 -19.5q-28 0 -47.5 19.5t-19.5 47.5zM96 683q0 29 19.5 48t48.5 19q28 0 47.5 -19t19.5 -48q0 -28 -19.5 -47.5t-47.5 -19.5q-29 0 -48.5 19.5t-19.5 47.5z" />
    <glyph glyph-name="igrave" unicode="&#xec;" horiz-adv-x="210" 
d="M45 0v500h121v-500h-121zM37 766l186 -79l-62 -97l-172 70z" />
    <glyph glyph-name="iacute" unicode="&#xed;" horiz-adv-x="210" 
d="M45 0v500h121v-500h-121zM-11 687l186 79l48 -106l-172 -70z" />
    <glyph glyph-name="icircumflex" unicode="&#xee;" horiz-adv-x="210" 
d="M45 0v500h121v-500h-121zM-45 706l150 58l153 -64l-64 -97l-89 39l-87 -33z" />
    <glyph glyph-name="idieresis" unicode="&#xef;" horiz-adv-x="210" 
d="M45 0v500h121v-500h-121zM142 683q0 29 19.5 48t47.5 19q29 0 48.5 -19t19.5 -48q0 -28 -19.5 -47.5t-48.5 -19.5q-28 0 -47.5 19.5t-19.5 47.5zM-64 683q0 29 19.5 48t48.5 19q28 0 47.5 -19t19.5 -48q0 -28 -19.5 -47.5t-47.5 -19.5q-29 0 -48.5 19.5t-19.5 47.5z" />
    <glyph glyph-name="eth" unicode="&#xf0;" horiz-adv-x="640" 
d="M443 258q0 52 -35 87.5t-88 35.5q-52 0 -87.5 -35.5t-35.5 -87.5q0 -53 35.5 -88t87.5 -35q54 0 88.5 34.5t34.5 88.5zM453 669l-55 -38l152 -239q36 -56 36 -134q0 -110 -78 -188t-188 -78t-188 78t-78 188q0 105 71 175t179 80q2 0 2 2t-1 3l-21 31l-50 -36l-66 94
l51 37l-27 39l112 83l32 -39l52 36z" />
    <glyph glyph-name="ntilde" unicode="&#xf1;" horiz-adv-x="533" 
d="M44 0v500h124v-19q41 27 99 27q106 0 164.5 -57.5t58.5 -163.5v-287h-136v285q0 36 -25.5 61.5t-61.5 25.5q-35 0 -60 -23t-27 -58v-291h-136zM100 604l1 121l14 7t22 10t26.5 8t32.5 4q25 0 68 -12.5t56 -12.5q49 0 113 41v-109q-2 -1 -14 -11t-22 -16.5t-27.5 -12.5
t-34.5 -6q-20 0 -68 13t-68 13q-71 0 -99 -37z" />
    <glyph glyph-name="ograve" unicode="&#xf2;" horiz-adv-x="582" 
d="M172 251q0 -51 35.5 -86.5t86.5 -35.5q50 0 85.5 35.5t35.5 86.5q0 50 -35.5 85.5t-85.5 35.5q-51 0 -86.5 -35.5t-35.5 -85.5zM35 251q0 107 75.5 182t183.5 75q106 0 181.5 -75t75.5 -182q0 -108 -75 -183.5t-182 -75.5q-108 0 -183.5 75.5t-75.5 183.5zM222 766
l186 -79l-62 -97l-172 70z" />
    <glyph glyph-name="oacute" unicode="&#xf3;" horiz-adv-x="582" 
d="M172 251q0 -51 35.5 -86.5t86.5 -35.5q50 0 85.5 35.5t35.5 86.5q0 50 -35.5 85.5t-85.5 35.5q-51 0 -86.5 -35.5t-35.5 -85.5zM35 251q0 107 75.5 182t183.5 75q106 0 181.5 -75t75.5 -182q0 -108 -75 -183.5t-182 -75.5q-108 0 -183.5 75.5t-75.5 183.5zM174 687
l186 79l48 -106l-172 -70z" />
    <glyph glyph-name="ocircumflex" unicode="&#xf4;" horiz-adv-x="582" 
d="M172 251q0 -51 35.5 -86.5t86.5 -35.5q50 0 85.5 35.5t35.5 86.5q0 50 -35.5 85.5t-85.5 35.5q-51 0 -86.5 -35.5t-35.5 -85.5zM35 251q0 107 75.5 182t183.5 75q106 0 181.5 -75t75.5 -182q0 -108 -75 -183.5t-182 -75.5q-108 0 -183.5 75.5t-75.5 183.5zM139 706
l150 58l153 -64l-64 -97l-89 39l-87 -33z" />
    <glyph glyph-name="otilde" unicode="&#xf5;" horiz-adv-x="582" 
d="M172 251q0 -51 35.5 -86.5t86.5 -35.5q50 0 85.5 35.5t35.5 86.5q0 50 -35.5 85.5t-85.5 35.5q-51 0 -86.5 -35.5t-35.5 -85.5zM35 251q0 107 75.5 182t183.5 75q106 0 181.5 -75t75.5 -182q0 -108 -75 -183.5t-182 -75.5q-108 0 -183.5 75.5t-75.5 183.5zM124 604l1 121
l14 7t22 10t26.5 8t32.5 4q25 0 68 -12.5t56 -12.5q49 0 113 41v-109q-2 -1 -14 -11t-22 -16.5t-27.5 -12.5t-34.5 -6q-20 0 -68 13t-68 13q-71 0 -99 -37z" />
    <glyph glyph-name="odieresis" unicode="&#xf6;" horiz-adv-x="582" 
d="M172 251q0 -51 35.5 -86.5t86.5 -35.5q50 0 85.5 35.5t35.5 86.5q0 50 -35.5 85.5t-85.5 35.5q-51 0 -86.5 -35.5t-35.5 -85.5zM35 251q0 107 75.5 182t183.5 75q106 0 181.5 -75t75.5 -182q0 -108 -75 -183.5t-182 -75.5q-108 0 -183.5 75.5t-75.5 183.5zM326 683
q0 29 19.5 48t47.5 19q29 0 48.5 -19t19.5 -48q0 -28 -19.5 -47.5t-48.5 -19.5q-28 0 -47.5 19.5t-19.5 47.5zM120 683q0 29 19.5 48t48.5 19q28 0 47.5 -19t19.5 -48q0 -28 -19.5 -47.5t-47.5 -19.5q-29 0 -48.5 19.5t-19.5 47.5z" />
    <glyph glyph-name="divide" unicode="&#xf7;" 
d="M50 313h500v-114h-500v114zM221 422q0 32 23 55t55 23t55 -23t23 -55t-23 -55t-55 -23t-55 23t-23 55zM221 90q0 32 23 55t55 23t55 -23t23 -55t-23 -55t-55 -23t-55 23t-23 55z" />
    <glyph glyph-name="oslash" unicode="&#xf8;" horiz-adv-x="582" 
d="M232 -62h-61l19 75q-71 30 -113 94t-42 144q0 107 75.5 182t183.5 75q20 0 39 -3l17 56h64l-21 -73q71 -31 114.5 -94.5t43.5 -142.5q0 -108 -75 -183.5t-182 -75.5q-25 0 -45 4zM429 251q0 38 -19 70t-52 49l-74 -254h10q56 0 95.5 39.5t39.5 95.5zM159 251
q0 -79 67 -117l73 252h-5q-56 0 -95.5 -39.5t-39.5 -95.5z" />
    <glyph glyph-name="ugrave" unicode="&#xf9;" horiz-adv-x="535" 
d="M490 500v-500h-127v19q-35 -27 -96 -27q-106 0 -164.5 57.5t-58.5 163.5v287h136v-285q0 -36 25.5 -61.5t61.5 -25.5t61.5 23t25.5 58v291h136zM198 766l186 -79l-62 -97l-172 70z" />
    <glyph glyph-name="uacute" unicode="&#xfa;" horiz-adv-x="535" 
d="M490 500v-500h-127v19q-35 -27 -96 -27q-106 0 -164.5 57.5t-58.5 163.5v287h136v-285q0 -36 25.5 -61.5t61.5 -25.5t61.5 23t25.5 58v291h136zM150 687l186 79l48 -106l-172 -70z" />
    <glyph glyph-name="ucircumflex" unicode="&#xfb;" horiz-adv-x="535" 
d="M490 500v-500h-127v19q-35 -27 -96 -27q-106 0 -164.5 57.5t-58.5 163.5v287h136v-285q0 -36 25.5 -61.5t61.5 -25.5t61.5 23t25.5 58v291h136zM116 706l150 58l153 -64l-64 -97l-89 39l-87 -33z" />
    <glyph glyph-name="udieresis" unicode="&#xfc;" horiz-adv-x="535" 
d="M490 500v-500h-127v19q-35 -27 -96 -27q-106 0 -164.5 57.5t-58.5 163.5v287h136v-285q0 -36 25.5 -61.5t61.5 -25.5t61.5 23t25.5 58v291h136zM303 683q0 29 19.5 48t47.5 19q29 0 48.5 -19t19.5 -48q0 -28 -19.5 -47.5t-48.5 -19.5q-28 0 -47.5 19.5t-19.5 47.5z
M97 683q0 29 19.5 48t48.5 19q28 0 47.5 -19t19.5 -48q0 -28 -19.5 -47.5t-47.5 -19.5q-29 0 -48.5 19.5t-19.5 47.5z" />
    <glyph glyph-name="yacute" unicode="&#xfd;" horiz-adv-x="477" 
d="M464 500l-241 -707h-145l88 250q1 2 1 9q0 6 -1 8l-153 440h146l78 -268q1 -1 1 -2q0 -2 1 -2l2 2q0 1 1 2l78 268h144zM121 687l186 79l48 -106l-172 -70z" />
    <glyph glyph-name="thorn" unicode="&#xfe;" horiz-adv-x="601" 
d="M428 250q0 52 -35.5 88t-87.5 36t-87.5 -36t-35.5 -88t35.5 -88t87.5 -36t87.5 36t35.5 88zM45 -207v907h136v-223q57 31 124 31q106 0 182 -76t76 -182t-76 -182t-182 -76q-66 0 -124 32v-231h-136z" />
    <glyph glyph-name="ydieresis" unicode="&#xff;" horiz-adv-x="477" 
d="M464 500l-241 -707h-145l88 250q1 2 1 9q0 6 -1 8l-153 440h146l78 -268q1 -1 1 -2q0 -2 1 -2l2 2q0 1 1 2l78 268h144zM68 683q0 29 19.5 48t48.5 19q28 0 47.5 -19t19.5 -48q0 -28 -19.5 -47.5t-47.5 -19.5q-29 0 -48.5 19.5t-19.5 47.5zM274 683q0 29 19.5 48t47.5 19
q29 0 48.5 -19t19.5 -48q0 -28 -19.5 -47.5t-48.5 -19.5q-28 0 -47.5 19.5t-19.5 47.5z" />
    <glyph glyph-name="dotlessi" unicode="&#x131;" horiz-adv-x="210" 
d="M45 0v500h121v-500h-121z" />
    <glyph glyph-name="Lslash" unicode="&#x141;" horiz-adv-x="598" 
d="M295 143h251v-143h-394v245l-64 -64l-81 81l145 145v343h143v-200l85 85l81 -81l-166 -166v-245z" />
    <glyph glyph-name="lslash" unicode="&#x142;" horiz-adv-x="446" 
d="M154 402v298h136v-162l59 59l81 -81l-140 -140v-376h-136v240l-59 -59l-81 81z" />
    <glyph glyph-name="OE" unicode="&#x152;" horiz-adv-x="1130" 
d="M822 299v-150q0 -6 6 -6h263v-143h-412v77q-106 -85 -241 -85q-159 0 -271 112t-112 271t112 271t271 112q135 0 241 -85v77h412v-143h-263q-6 0 -6 -6v-147q0 -6 6 -6h263v-143h-263q-6 0 -6 -6zM198 375q0 -99 70.5 -169.5t169.5 -70.5t169.5 70.5t70.5 169.5
t-70.5 169.5t-169.5 70.5t-169.5 -70.5t-70.5 -169.5z" />
    <glyph glyph-name="oe" unicode="&#x153;" horiz-adv-x="924" 
d="M688 116q58 0 135 40l55 -97q-51 -36 -96.5 -51.5t-106.5 -15.5q-119 0 -194 81q-76 -81 -187 -81q-108 0 -183.5 75.5t-75.5 183.5q0 107 75.5 182t183.5 75q112 0 188 -83q75 82 186 82q109 0 169 -67.5t60 -178.5q0 -27 -3 -57h-327q-3 0 -3 -5q11 -37 45 -60t79 -23z
M172 251q0 -51 35.5 -86.5t86.5 -35.5q50 0 85.5 35.5t35.5 86.5q0 50 -35.5 85.5t-85.5 35.5q-51 0 -86.5 -35.5t-35.5 -85.5zM663 388q-41 0 -72 -31q-29 -29 -29 -50q0 -3 4 -3h189q4 0 4 2q0 33 -22 55q-27 27 -74 27z" />
    <glyph glyph-name="Scaron" unicode="&#x160;" horiz-adv-x="539" 
d="M55 150l114 49q39 -65 98 -65q32 0 53 22.5t21 53.5q0 21 -7 37t-13 25t-26 19.5t-26.5 13.5t-32.5 13q-86 33 -133 83t-47 132q0 101 59.5 162t159.5 61q59 0 113.5 -33t72.5 -91l-129 -62q-19 42 -66 42q-27 0 -47 -22.5t-20 -50.5q0 -25 22 -47t56 -37q70 -29 100 -47
q57 -34 82 -80t25 -118q0 -91 -61.5 -154.5t-149.5 -63.5h-9q-75 0 -131 44t-78 114zM268 803l-150 58l63 97l87 -33l89 39l64 -97z" />
    <glyph glyph-name="scaron" unicode="&#x161;" horiz-adv-x="359" 
d="M29 100l94 57q26 -35 50 -35q10 0 19 9t9 20q0 13 -11 25t-18.5 16t-24.5 13q-22 11 -34 18.5t-34 26t-33 45.5t-11 62q0 69 40 110t109 41q93 0 137 -111l-93 -49q-11 31 -40 31q-10 0 -18.5 -8t-8.5 -19q0 -15 10.5 -25.5t39.5 -26.5t39 -22q76 -51 76 -138
q0 -62 -42 -105t-102 -43q-102 0 -153 108zM178 603l-150 58l63 97l87 -33l89 39l64 -97z" />
    <glyph glyph-name="Ydieresis" unicode="&#x178;" horiz-adv-x="594" 
d="M16 750h158l120 -300q2 -3 3 -3t3 3l121 299h156l-208 -479v-270h-143v270zM332 883q0 29 19.5 48t47.5 19q29 0 48.5 -19t19.5 -48q0 -28 -19.5 -47.5t-48.5 -19.5q-28 0 -47.5 19.5t-19.5 47.5zM126 883q0 29 19.5 48t48.5 19q28 0 47.5 -19t19.5 -48
q0 -28 -19.5 -47.5t-47.5 -19.5q-29 0 -48.5 19.5t-19.5 47.5z" />
    <glyph glyph-name="Zcaron" unicode="&#x17d;" horiz-adv-x="586" 
d="M352 590q3 6 3 9q0 8 -17 8h-282v143h472v-111l-74 -119q-74 -118 -149 -240t-75 -129q0 -8 17 -8h281v-143h-472v110q97 155 149 240zM291 803l-150 58l63 97l87 -33l89 39l64 -97z" />
    <glyph glyph-name="zcaron" unicode="&#x17e;" horiz-adv-x="427" 
d="M208 350q4 4 4 8q0 8 -17 8h-156v134h349v-102q1 0 -42.5 -61t-88 -125t-44.5 -70q0 -7 15 -7h160v-135h-349v107l86 121zM212 603l-150 58l63 97l87 -33l89 39l64 -97z" />
    <glyph glyph-name="florin" unicode="&#x192;" horiz-adv-x="475" 
d="M277 378v-368q0 -68 -34.5 -106t-100.5 -38h-134v118h78q29 0 42 9.5t13 37.5v347h-108v122h108v58q0 68 34.5 106t100.5 38h136v-118h-80q-29 0 -42 -9.5t-13 -37.5v-37h163v-122h-163z" />
    <glyph glyph-name="circumflex" unicode="&#x2c6;" horiz-adv-x="398" 
d="M48 706l150 58l153 -64l-64 -97l-89 39l-87 -33z" />
    <glyph glyph-name="caron" unicode="&#x2c7;" horiz-adv-x="397" 
d="M198 603l-150 58l63 97l87 -33l89 39l64 -97z" />
    <glyph glyph-name="breve" unicode="&#x2d8;" horiz-adv-x="420" 
d="M28 686l90 72l3 -3q47 -47 89 -47q20 0 34 7.5t30.5 25t18.5 18.5l90 -76q-19 -37 -67 -63t-106 -26q-62 0 -112.5 26.5t-69.5 65.5z" />
    <glyph glyph-name="dotaccent" unicode="&#x2d9;" horiz-adv-x="247" 
d="M57 677q0 29 19 48.5t48 19.5t48.5 -19.5t19.5 -48.5t-19.5 -48t-48.5 -19t-48 19t-19 48z" />
    <glyph glyph-name="ring" unicode="&#x2da;" horiz-adv-x="308" 
d="M55 678q0 42 28.5 70.5t70.5 28.5t70.5 -28.5t28.5 -70.5t-28.5 -70.5t-70.5 -28.5t-70.5 28.5t-28.5 70.5zM90 678q0 -26 19 -45t45 -19t45 19t19 45t-19 45t-45 19t-45 -19t-19 -45z" />
    <glyph glyph-name="ogonek" unicode="&#x2db;" horiz-adv-x="299" 
d="M165 0h69q-30 -17 -57 -49t-27 -64q0 -38 36 -38q14 0 38 8l21 8v-52q-15 -11 -45.5 -21t-53.5 -10q-42 0 -67 22.5t-25 61.5q0 42 36 80t75 54z" />
    <glyph glyph-name="tilde" unicode="&#x2dc;" horiz-adv-x="444" 
d="M55 604l1 121l14 7t22 10t26.5 8t32.5 4q25 0 68 -12.5t56 -12.5q49 0 113 41v-109q-2 -1 -14 -11t-22 -16.5t-27.5 -12.5t-34.5 -6q-20 0 -68 13t-68 13q-71 0 -99 -37z" />
    <glyph glyph-name="hungarumlaut" unicode="&#x2dd;" horiz-adv-x="599" 
d="M53 703l186 79l48 -106l-172 -70zM314 703l186 79l48 -106l-172 -70z" />
    <glyph glyph-name="endash" unicode="&#x2013;" horiz-adv-x="614" 
d="M56 344h501v-114h-501v114z" />
    <glyph glyph-name="emdash" unicode="&#x2014;" horiz-adv-x="790" 
d="M57 344h676v-114h-676v114z" />
    <glyph glyph-name="quoteleft" unicode="&#x2018;" horiz-adv-x="225" 
d="M40 750h116l18 -183l-79 -10z" />
    <glyph glyph-name="quoteright" unicode="&#x2019;" horiz-adv-x="225" 
d="M58 750h116l-55 -193l-79 10z" />
    <glyph glyph-name="quotesinglbase" unicode="&#x201a;" horiz-adv-x="225" 
d="M58 117h116l-55 -193l-79 10z" />
    <glyph glyph-name="quotedblleft" unicode="&#x201c;" horiz-adv-x="386" 
d="M40 750h116l18 -183l-79 -10zM197 750h116l18 -183l-79 -10z" />
    <glyph glyph-name="quotedblright" unicode="&#x201d;" horiz-adv-x="386" 
d="M215 750h116l-55 -193l-79 10zM58 750h116l-55 -193l-79 10z" />
    <glyph glyph-name="quotedblbase" unicode="&#x201e;" horiz-adv-x="386" 
d="M215 117h116l-55 -193l-79 10zM58 117h116l-55 -193l-79 10z" />
    <glyph glyph-name="dagger" unicode="&#x2020;" horiz-adv-x="672" 
d="M270 -187v595h-222v120h222v221h132v-221h221v-120h-221v-595h-132z" />
    <glyph glyph-name="daggerdbl" unicode="&#x2021;" horiz-adv-x="674" 
d="M271 -184v399h-222v120h222v73h-222v120h222v222h132v-222h221v-120h-221v-73h221v-120h-221v-399h-132z" />
    <glyph glyph-name="bullet" unicode="&#x2022;" horiz-adv-x="350" 
d="M55 300q0 50 35.5 85t84.5 35t84.5 -35t35.5 -85t-35.5 -85t-84.5 -35t-84.5 35t-35.5 85z" />
    <glyph glyph-name="ellipsis" unicode="&#x2026;" horiz-adv-x="733" 
d="M57 52q0 24 17.5 42.5t43.5 18.5q23 0 39.5 -18.5t16.5 -42.5q0 -23 -16.5 -39.5t-39.5 -16.5q-27 0 -44 16t-17 40zM308 52q0 24 17.5 42.5t43.5 18.5q23 0 39.5 -18.5t16.5 -42.5q0 -23 -16.5 -39.5t-39.5 -16.5q-27 0 -44 16t-17 40zM559 52q0 24 17.5 42.5t43.5 18.5
q23 0 39.5 -18.5t16.5 -42.5q0 -23 -16.5 -39.5t-39.5 -16.5q-27 0 -44 16t-17 40z" />
    <glyph glyph-name="perthousand" unicode="&#x2030;" horiz-adv-x="1299" 
d="M311 12q-10 -16 -29 -16q-14 0 -24 10t-10 24q0 7 5 19l348 683q9 23 33 23q14 0 24 -10t10 -24q0 -9 -6 -19zM601 180q0 -34 23.5 -57.5t57.5 -23.5t57.5 23.5t23.5 57.5t-23.5 57.5t-57.5 23.5t-57.5 -23.5t-23.5 -57.5zM502 180q0 75 52.5 127.5t127.5 52.5
t127.5 -52.5t52.5 -127.5t-52.5 -127.5t-127.5 -52.5t-127.5 52.5t-52.5 127.5zM154 570q0 -34 23.5 -57.5t57.5 -23.5t57.5 23.5t23.5 57.5t-23.5 57.5t-57.5 23.5t-57.5 -23.5t-23.5 -57.5zM55 570q0 75 52.5 127.5t127.5 52.5t127.5 -52.5t52.5 -127.5t-52.5 -127.5
t-127.5 -52.5t-127.5 52.5t-52.5 127.5zM986 180q0 -34 23.5 -57.5t57.5 -23.5t57.5 23.5t23.5 57.5t-23.5 57.5t-57.5 23.5t-57.5 -23.5t-23.5 -57.5zM887 180q0 75 52.5 127.5t127.5 52.5t127.5 -52.5t52.5 -127.5t-52.5 -127.5t-127.5 -52.5t-127.5 52.5t-52.5 127.5z
" />
    <glyph glyph-name="guilsinglleft" unicode="&#x2039;" horiz-adv-x="320" 
d="M47 272l137 213l88 -73l-92 -140l95 -142l-96 -69z" />
    <glyph glyph-name="guilsinglright" unicode="&#x203a;" horiz-adv-x="320" 
d="M138 485l137 -213l-132 -211l-96 69l95 142l-92 140z" />
    <glyph glyph-name="fraction" unicode="&#x2044;" horiz-adv-x="542" 
d="M87 -27l-53 28l414 765l54 -30z" />
    <glyph glyph-name="Euro" unicode="&#x20ac;" horiz-adv-x="602" 
d="M350 135q51 0 93 46l104 -98q-35 -40 -90.5 -65.5t-106.5 -25.5q-99 0 -168 62.5t-84 161.5q-2 8 -2 13h-54v117h53v52h-53v111h54q0 4 2 14q14 89 80.5 156t171.5 67q53 0 112.5 -26.5t86.5 -67.5l-107 -88q-48 50 -93 50q-77 0 -108 -86q0 -2 -1.5 -6t-2.5 -7l-1 -4
h196v-113h-196v-54h197v-118h-193q0 -7 1 -10q7 -32 39.5 -56.5t69.5 -24.5z" />
    <glyph glyph-name="trademark" unicode="&#x2122;" horiz-adv-x="866" 
d="M582 440l110 311h117v-451h-85v297q0 4 -4 4t-5 -4q0 -1 -8 -23.5t-20.5 -59t-24.5 -68.5l-51 -146h-64l-50 146q-9 28 -23 67.5t-21 60.5t-7 23l-1 1h-2t-1 -0.5t-1 -0.5h-1v-296h-89v450h115l110 -311q2 -3 3 -3q3 0 3 3zM241 299h-86v365q0 2 -3 2h-98v86h288v-86h-98
l-3 -3v-364z" />
    <glyph glyph-name="minus" unicode="&#x2212;" horiz-adv-x="570" 
d="M57 313h457v-114h-457v114z" />
    <glyph glyph-name="fi" unicode="&#xfb01;" horiz-adv-x="687" 
d="M141 500v48q0 70 41 112t114 42h89v-118h-53q-55 0 -55 -57v-27h145v-122h-145v-378h-136v378h-81v122h81zM507 0v501h136v-501h-136zM507 610q0 27 20 47.5t49 20.5q27 0 47.5 -20.5t20.5 -47.5q0 -29 -20.5 -49t-47.5 -20q-29 0 -49 20t-20 49z" />
    <glyph glyph-name="fl" unicode="&#xfb02;" horiz-adv-x="701" 
d="M141 500v48q0 70 41 112t114 42h89v-118h-53q-55 0 -55 -57v-27h145v-122h-145v-378h-136v378h-81v122h81zM520 0v700h136v-700h-136z" />
    <glyph glyph-name="CR" horiz-adv-x="290" 
 />
    <glyph glyph-name="_164" horiz-adv-x="0" 
 />
    </font>
</defs>
</svg>
